<?xml version="1.0" encoding="UTF-8" standalone="no"?>
<!DOCTYPE svg PUBLIC "-//W3C//DTD SVG 1.1//EN" "http://www.w3.org/Graphics/SVG/1.1/DTD/svg11.dtd">
<svg width="100%" height="100%" viewBox="0 0 742 377" version="1.1" xmlns="http://www.w3.org/2000/svg" xmlns:xlink="http://www.w3.org/1999/xlink" xml:space="preserve" xmlns:serif="http://www.serif.com/" style="fill-rule:evenodd;clip-rule:evenodd;stroke-linejoin:round;stroke-miterlimit:2;">
    <g transform="matrix(1,0,0,1,-29.921,-293.924)">
        <g transform="matrix(0.774533,0,0,0.774533,-83.2151,247.495)">
            <g id="Layer-1" serif:id="Layer 1">
                <g>
                    <g transform="matrix(0,-1,-1,0,702,702)">
                        <path d="M396,68.981C265.099,68.981 158.983,175.097 158.983,306.002C158.983,436.903 265.099,543.019 396,543.019C526.901,543.019 633.017,436.903 633.017,306.002C633.017,175.097 526.901,68.981 396,68.981" style="fill:rgb(104,104,149);fill-rule:nonzero;"/>
                    </g>
                    <g transform="matrix(1,0,0,1,0,-186.303)">
                        <path d="M234.776,401.476L237.006,398.109C238.483,395.879 238.28,394.161 236.18,392.772C234.244,391.49 232.438,391.831 230.938,394.092L228.711,397.459L234.776,401.476ZM250.263,401.04C249.41,401.239 248.656,401.078 247.746,400.715L244.008,399.341C241.551,398.484 240.469,399.253 239.298,401.021L237.71,403.419L245.343,408.474L242.982,412.039L223.347,399.043L228.05,391.942C231.007,387.477 234.393,386.264 238.326,388.869C241.394,390.901 241.723,393.946 240.273,396.583L240.338,396.625C241.819,394.968 243.281,394.497 245.634,395.289L250.095,396.804C250.994,397.111 251.858,397.252 252.845,397.137L250.263,401.04Z" style="fill:white;fill-rule:nonzero;"/>
                    </g>
                    <g transform="matrix(1,0,0,1,0,-222.881)">
                        <path d="M264.895,419.287L255.288,430.726L237.272,415.594L246.879,404.155L249.722,406.546L242.866,414.715L247.606,418.693L253.666,411.474L256.451,413.812L250.387,421.031L255.193,425.064L262.049,416.895L264.895,419.287Z" style="fill:white;fill-rule:nonzero;"/>
                    </g>
                    <g transform="matrix(1,0,0,1,0,-251.851)">
                        <path d="M264.582,438.778C266.785,440.434 269.05,440.132 270.806,438.441C272.444,436.861 272.903,435.032 271.518,433.597C270.187,432.212 268.886,432.247 265.408,433.819C261.36,435.721 258.123,436.509 255.154,433.433C251.661,429.802 253.261,425.819 256.023,423.16C259.248,420.05 262.86,418.906 266.28,421.821L263.897,425.456C262.03,423.864 260.021,424.14 258.494,425.609C257.056,426.994 256.712,428.712 258.1,430.15C259.57,431.677 261.276,431.03 264.241,429.672C268.147,427.851 271.246,426.975 274.322,430.169C277.651,433.62 276.274,437.726 272.907,440.966C269.567,444.184 266.303,444.945 262.672,442.504L264.582,438.778Z" style="fill:white;fill-rule:nonzero;"/>
                    </g>
                    <g transform="matrix(1,0,0,1,0,-280.805)">
                        <path d="M293.797,446.039C294.187,450.022 293.063,452.956 289.195,455.925C284.282,459.694 278.21,458.814 273.439,452.601C268.668,446.387 269.453,440.193 274.809,436.076C278.36,433.352 281.952,433.111 285.545,435.093L283.559,439.133C281.256,437.58 279.01,437.538 276.917,439.145C273.65,441.655 273.745,445.714 276.982,449.934C280.196,454.116 283.808,455.275 287.197,452.666C289.29,451.059 290.059,449.111 289.692,446.269L293.797,446.039Z" style="fill:white;fill-rule:nonzero;"/>
                    </g>
                    <g transform="matrix(1,0,0,1,0,-302.483)">
                        <path d="M298.909,458.87L304.869,455.365L301.334,452.342C298.312,449.81 296.525,447.797 296.525,447.797L296.391,447.881C296.391,447.881 297.225,450.403 298.006,454.255L298.909,458.87ZM307.773,457.783L299.678,462.542L300.887,468.691L297.065,470.94L292.504,446.32L297.221,443.543L316.523,459.493L312.563,461.823L307.773,457.783Z" style="fill:white;fill-rule:nonzero;"/>
                    </g>
                    <g transform="matrix(1,0,0,1,0,-327.596)">
                        <path d="M321.042,482.787L312.79,464.778L306.687,467.571L305.142,464.197L321.264,456.809L322.814,460.187L316.638,463.014L324.891,481.023L321.042,482.787Z" style="fill:white;fill-rule:nonzero;"/>
                    </g>
                    <g transform="matrix(1,0,0,1,0,-339.981)">
                        <path d="M348.13,484.74L333.982,489.523L326.452,467.24L340.597,462.458L341.791,465.978L331.686,469.39L333.672,475.256L342.598,472.233L343.761,475.68L334.831,478.695L336.84,484.637L346.94,481.22L348.13,484.74Z" style="fill:white;fill-rule:nonzero;"/>
                    </g>
                    <g transform="matrix(1,0,0,1,0,-354.265)">
                        <path d="M360.867,495.957L356.808,472.779L370.937,470.308L371.576,473.965L361.659,475.702L362.811,482.275L371.507,480.749L372.131,484.33L363.438,485.853L365.079,495.218L360.867,495.957Z" style="fill:white;fill-rule:nonzero;"/>
                    </g>
                    <g transform="matrix(1,0,0,1,0,-358.861)">
                        <path d="M393.787,496.66L378.874,497.689L377.259,474.201L392.169,473.172L392.425,476.883L381.778,477.614L382.206,483.797L391.614,483.15L391.863,486.777L382.455,487.424L382.884,493.683L393.531,492.948L393.787,496.66Z" style="fill:white;fill-rule:nonzero;"/>
                    </g>
                    <g transform="matrix(1,0,0,1,0,-359.39)">
                        <path d="M403.464,473.84L402.799,493.647L412.861,493.984L412.738,497.695L398.403,497.213L399.191,473.695L403.464,473.84Z" style="fill:white;fill-rule:nonzero;"/>
                    </g>
                    <g transform="matrix(0.111066,-0.993813,-0.993813,-0.111066,854.843,598.412)">
                        <rect x="408.062" y="482.507" width="23.526" height="4.273" style="fill:white;"/>
                    </g>
                    <g transform="matrix(1,0,0,1,0,-351.165)">
                        <path d="M441.601,483.251C442.557,485.458 443.139,487.704 443.139,487.704L443.296,487.739C443.296,487.739 443.632,485.401 444.248,482.512L446.651,471.26L450.833,472.159L445.916,495.157L441.933,494.311L435.755,480.041C434.702,477.692 434.129,475.404 434.129,475.404L433.972,475.369C433.972,475.369 433.719,477.688 433.065,480.775L430.681,491.905L426.507,491.01L431.424,468.008L435.521,468.884L441.601,483.251Z" style="fill:white;fill-rule:nonzero;"/>
                    </g>
                    <g transform="matrix(1,0,0,1,0,-336.603)">
                        <path d="M458.104,472.201C456.298,477.156 457.182,480.92 461.122,482.355C465.063,483.79 468.2,481.486 469.999,476.532C471.82,471.539 470.898,467.763 466.953,466.328C463.055,464.905 459.921,467.208 458.104,472.201M453.911,470.632C456.6,463.237 462.01,460.528 468.239,462.797C474.471,465.066 476.874,470.617 474.18,478.013C471.506,485.366 466.1,488.075 459.868,485.81C453.635,483.541 451.232,477.993 453.911,470.632" style="fill:white;fill-rule:nonzero;"/>
                    </g>
                    <g transform="matrix(1,0,0,1,0,-307.842)">
                        <path d="M500.066,471.305C496.53,473.18 493.393,473.256 489.177,470.815C483.821,467.712 482.325,461.767 486.25,454.991C490.176,448.219 496.198,446.586 502.04,449.968C505.908,452.214 507.499,455.443 507.036,459.51L502.545,459.219C503.107,456.495 502.285,454.406 500.004,453.082C496.446,451.02 492.731,452.654 490.068,457.249C487.421,461.813 487.727,465.589 491.427,467.728C493.707,469.052 495.803,469.021 498.287,467.598L500.066,471.305Z" style="fill:white;fill-rule:nonzero;"/>
                    </g>
                    <g transform="matrix(1,0,0,1,0,-280.373)">
                        <path d="M500.626,449.743L514.931,431.072L518.325,433.674L512.399,441.406L520.701,447.769L526.627,440.036L530.021,442.634L515.716,461.301L512.326,458.707L518.466,450.684L510.164,444.322L504.02,452.345L500.626,449.743Z" style="fill:white;fill-rule:nonzero;"/>
                    </g>
                    <g transform="matrix(0.682551,-0.730838,-0.730838,-0.682551,485.384,861.212)">
                        <rect x="517.799" y="431.987" width="23.526" height="4.276" style="fill:white;"/>
                    </g>
                    <g transform="matrix(1,0,0,1,0,-233.325)">
                        <path d="M547.591,412.566L532.999,425.976L539.809,433.387L537.074,435.904L527.371,425.341L544.699,409.421L547.591,412.566Z" style="fill:white;fill-rule:nonzero;"/>
                    </g>
                    <g transform="matrix(1,0,0,1,0,-203.127)">
                        <path d="M548.26,420.572L539.349,408.585L558.226,394.555L567.137,406.542L564.153,408.757L557.794,400.202L552.828,403.894L558.448,411.455L555.533,413.624L549.913,406.06L544.878,409.802L551.236,418.357L548.26,420.572Z" style="fill:white;fill-rule:nonzero;"/>
                    </g>
                    <g transform="matrix(1,0,0,1,0,4.205)">
                        <path d="M445.877,326.411C443.532,321.135 444.997,297.101 443.241,288.599C441.481,280.102 436.205,275.117 431.514,269.841C426.828,264.565 426.828,262.514 427.704,257.238C428.584,251.966 433.565,252.547 440.306,251.966C447.048,251.377 450.858,242.879 453.204,238.185C455.549,233.498 454.084,232.033 450.567,229.687C447.051,227.342 445.582,224.117 443.532,220.015C441.481,215.91 441.186,211.809 435.62,208.584C430.049,205.358 428.293,199.841 428.293,199.841L427.998,199.497C427.998,199.497 434.594,180.207 432.689,178.982C430.78,177.758 414.806,193.93 404.549,203.897C394.292,213.86 386.965,220.31 375.824,258.118C364.69,295.93 368.482,314.987 367.912,318.315C367.346,321.64 353.274,325.305 350.324,365.834C348.885,385.602 361.477,409.342 361.408,409.331C347.638,406.737 334.515,403.477 327.831,390.266C321.847,378.44 322.199,364.269 324.047,351.456C324.128,350.912 324.212,350.369 324.296,349.826C324.461,348.755 324.644,347.687 324.832,346.62C325.222,344.405 325.67,342.197 326.148,340.001C328.57,328.837 333.497,318.53 336.876,307.66C340.644,295.524 341.494,282.73 337.052,270.648C335.166,265.521 332.461,260.685 328.44,256.924C323.944,252.72 318.419,250.547 312.394,249.774C303.364,248.614 290.039,251.239 285.505,260.115C283.63,263.777 283.638,267.583 285.907,271.073C289.006,275.828 295.976,275.013 297.794,269.626C298.203,268.892 298.532,268.123 298.823,267.335C298.884,267.277 298.945,267.22 299.003,267.166C305.453,261.343 316.698,266.16 320.474,272.328C328.187,284.93 323.091,300.563 318.377,313.215C316.327,318.709 314.142,324.161 312.508,329.801C311.261,334.113 310.412,338.566 309.639,342.985C306.303,361.989 304.956,384.336 315.76,401.338C333.991,430.037 366.921,424.244 397.245,424.107C407.679,424.057 421.995,424.214 432.406,423.475C444.664,422.603 447.908,408.133 450.755,398.691C454.229,387.167 456.027,375.05 457.309,363.102C457.787,358.626 458.189,354.073 458.189,349.566C458.189,337.254 448.222,331.687 445.877,326.411" style="fill:rgb(241,242,242);fill-rule:nonzero;"/>
                    </g>
                    <g transform="matrix(1,0,0,1,0,324.71)">
                        <path d="M299.977,155.404L299.977,131.886L314.309,131.886L314.309,135.597L304.247,135.597L304.247,142.265L313.073,142.265L313.073,145.9L304.247,145.9L304.247,155.404L299.977,155.404Z" style="fill:rgb(241,242,242);fill-rule:nonzero;"/>
                    </g>
                    <g transform="matrix(1,0,0,1,0,325.184)">
                        <path d="M336.679,131.41L336.679,147.184C336.679,153.371 332.206,155.406 327.374,155.406C322.58,155.406 318.108,153.371 318.108,147.184L318.108,131.41L322.385,131.41L322.385,146.025C322.385,149.981 323.98,151.894 327.374,151.894C330.81,151.894 332.405,149.981 332.405,146.063L332.405,131.41L336.679,131.41Z" style="fill:rgb(241,242,242);fill-rule:nonzero;"/>
                    </g>
                    <g transform="matrix(1,0,0,1,0,324.708)">
                        <path d="M355.577,144.664C356.973,146.623 358.014,148.696 358.014,148.696L358.174,148.696C358.174,148.696 358.014,146.34 358.014,143.386L358.014,131.885L362.283,131.885L362.283,155.407L358.209,155.407L349.187,142.747C347.672,140.67 346.632,138.554 346.632,138.554L346.471,138.554C346.471,138.554 346.712,140.872 346.712,144.025L346.712,155.407L342.438,155.407L342.438,131.885L346.632,131.885L355.577,144.664Z" style="fill:rgb(241,242,242);fill-rule:nonzero;"/>
                    </g>
                    <g transform="matrix(1,0,0,1,0,324.706)">
                        <path d="M375.913,151.814C380.386,151.814 383.42,149.579 383.42,143.588C383.42,137.359 380.301,135.481 376.273,135.481L373.036,135.481L373.036,151.814L375.913,151.814ZM368.766,155.406L368.766,131.888L376.51,131.888C383.102,131.888 387.892,135.125 387.892,143.389C387.892,152.093 382.738,155.406 376.311,155.406L368.766,155.406Z" style="fill:rgb(241,242,242);fill-rule:nonzero;"/>
                    </g>
                    <g transform="matrix(1,0,0,1,0,324.708)">
                        <path d="M397.527,145.942L404.437,145.942L402.914,141.55C401.598,137.838 401.082,135.199 401.082,135.199L400.921,135.199C400.921,135.199 400.358,137.796 399.081,141.511L397.527,145.942ZM405.715,149.496L396.33,149.496L394.252,155.407L389.818,155.407L398.365,131.885L403.832,131.885L412.38,155.407L407.788,155.407L405.715,149.496Z" style="fill:rgb(241,242,242);fill-rule:nonzero;"/>
                    </g>
                    <g transform="matrix(1,0,0,1,0,324.706)">
                        <path d="M434.431,150.857C432.315,154.251 429.641,155.884 424.77,155.884C418.576,155.884 414.306,151.496 414.306,143.668C414.306,135.84 418.699,131.41 425.444,131.41C429.916,131.41 432.916,133.403 434.549,137.16L430.521,139.153C429.641,136.521 427.881,135.125 425.249,135.125C421.132,135.125 418.737,138.396 418.737,143.71C418.737,148.979 420.895,152.093 425.168,152.093C427.804,152.093 429.599,151.014 431.037,148.542L434.431,150.857Z" style="fill:rgb(241,242,242);fill-rule:nonzero;"/>
                    </g>
                    <g transform="matrix(1,0,0,1,0,324.712)">
                        <rect x="438.633" y="131.885" width="4.27" height="23.518" style="fill:rgb(241,242,242);"/>
                    </g>
                    <g transform="matrix(1,0,0,1,0,317.521)">
                        <path d="M456.527,136.596L459.04,131.408L464.473,131.408L460.36,136.596L456.527,136.596ZM452.334,150.893C452.334,156.162 454.449,159.398 458.642,159.398C462.832,159.398 464.994,156.162 464.994,150.893C464.994,145.583 462.832,142.346 458.642,142.346C454.491,142.346 452.334,145.583 452.334,150.893M447.861,150.855C447.861,142.985 452.012,138.593 458.642,138.593C465.269,138.593 469.424,142.985 469.424,150.855C469.424,158.679 465.269,163.071 458.642,163.071C452.012,163.071 447.861,158.679 447.861,150.855" style="fill:rgb(241,242,242);fill-rule:nonzero;"/>
                    </g>
                    <g transform="matrix(1,0,0,1,0,324.708)">
                        <path d="M487.523,144.664C488.919,146.623 489.96,148.696 489.96,148.696L490.121,148.696C490.121,148.696 489.96,146.34 489.96,143.386L489.96,131.885L494.23,131.885L494.23,155.407L490.155,155.407L481.134,142.747C479.619,140.67 478.578,138.554 478.578,138.554L478.417,138.554C478.417,138.554 478.658,140.872 478.658,144.025L478.658,155.407L474.385,155.407L474.385,131.885L478.578,131.885L487.523,144.664Z" style="fill:rgb(241,242,242);fill-rule:nonzero;"/>
                    </g>
                </g>
            </g>
        </g>
        <g transform="matrix(4.12507,0,0,4.12507,-1781.62,-659.371)">
            <g transform="matrix(22,0,0,22,533.922,255.785)">
                <path d="M0.542,-0C0.524,-0.019 0.516,-0.039 0.509,-0.063L0.479,-0.175C0.464,-0.232 0.435,-0.255 0.38,-0.263L0.38,-0.266C0.455,-0.272 0.511,-0.321 0.511,-0.413C0.511,-0.538 0.435,-0.589 0.302,-0.589L0.079,-0.589L0.079,-0L0.2,-0L0.2,-0.218L0.265,-0.218C0.315,-0.218 0.342,-0.208 0.355,-0.152L0.378,-0.059C0.384,-0.035 0.391,-0.015 0.407,-0L0.542,-0ZM0.2,-0.487L0.295,-0.487C0.356,-0.487 0.387,-0.456 0.387,-0.403C0.387,-0.343 0.355,-0.319 0.294,-0.319L0.2,-0.319L0.2,-0.487Z" style="fill:rgb(104,104,148);fill-rule:nonzero;"/>
            </g>
            <g transform="matrix(22,0,0,22,546.484,255.785)">
                <path d="M0.463,-0.105L0.2,-0.105L0.2,-0.246L0.432,-0.246L0.432,-0.348L0.2,-0.348L0.2,-0.484L0.463,-0.484L0.463,-0.589L0.079,-0.589L0.079,-0L0.463,-0L0.463,-0.105Z" style="fill:rgb(104,104,148);fill-rule:nonzero;"/>
            </g>
            <g transform="matrix(22,0,0,22,557.77,255.785)">
                <path d="M0.024,-0.135C0.05,-0.029 0.125,0.012 0.241,0.012C0.362,0.012 0.462,-0.036 0.462,-0.16C0.462,-0.272 0.395,-0.312 0.283,-0.349C0.209,-0.373 0.172,-0.391 0.172,-0.438C0.172,-0.481 0.206,-0.503 0.249,-0.503C0.296,-0.503 0.337,-0.476 0.342,-0.42L0.462,-0.448C0.451,-0.561 0.364,-0.602 0.247,-0.602C0.148,-0.602 0.046,-0.558 0.046,-0.428C0.046,-0.325 0.11,-0.278 0.231,-0.239C0.314,-0.211 0.337,-0.19 0.337,-0.148C0.337,-0.103 0.301,-0.081 0.25,-0.081C0.191,-0.081 0.147,-0.117 0.135,-0.179L0.024,-0.135Z" style="fill:rgb(104,104,148);fill-rule:nonzero;"/>
            </g>
            <g transform="matrix(22,0,0,22,568.836,255.785)">
                <path d="M0.455,-0.182C0.425,-0.122 0.38,-0.095 0.32,-0.095C0.218,-0.095 0.167,-0.169 0.167,-0.292C0.167,-0.418 0.225,-0.495 0.321,-0.495C0.385,-0.495 0.423,-0.46 0.443,-0.398L0.559,-0.454C0.517,-0.549 0.442,-0.601 0.326,-0.601C0.151,-0.601 0.042,-0.491 0.042,-0.294C0.042,-0.098 0.15,0.012 0.308,0.012C0.434,0.012 0.502,-0.03 0.556,-0.119L0.455,-0.182Z" style="fill:rgb(104,104,148);fill-rule:nonzero;"/>
            </g>
            <g transform="matrix(22,0,0,22,581.552,255.785)">
                <path d="M0.46,-0L0.59,-0L0.376,-0.589L0.224,-0.589L0.01,-0L0.137,-0L0.183,-0.136L0.412,-0.136L0.46,-0ZM0.248,-0.325C0.281,-0.419 0.296,-0.488 0.296,-0.488L0.3,-0.488C0.3,-0.488 0.312,-0.42 0.346,-0.324L0.377,-0.236L0.217,-0.236L0.248,-0.325Z" style="fill:rgb(104,104,148);fill-rule:nonzero;"/>
            </g>
            <g transform="matrix(22,0,0,22,593.652,255.785)">
                <path d="M0.295,-0L0.295,-0.484L0.461,-0.484L0.461,-0.589L0.01,-0.589L0.01,-0.484L0.174,-0.484L0.174,-0L0.295,-0Z" style="fill:rgb(104,104,148);fill-rule:nonzero;"/>
            </g>
            <g transform="matrix(22,0,0,22,604.014,255.785)">
                <path d="M0.463,-0.105L0.2,-0.105L0.2,-0.246L0.432,-0.246L0.432,-0.348L0.2,-0.348L0.2,-0.484L0.463,-0.484L0.463,-0.589L0.079,-0.589L0.079,-0L0.463,-0L0.463,-0.105Z" style="fill:rgb(104,104,148);fill-rule:nonzero;"/>
            </g>
            <g transform="matrix(22,0,0,22,533.922,273.785)">
                <path d="M0.2,-0L0.2,-0.228L0.42,-0.228L0.42,-0.33L0.2,-0.33L0.2,-0.484L0.451,-0.484L0.451,-0.589L0.079,-0.589L0.079,-0L0.2,-0Z" style="fill:rgb(104,104,148);fill-rule:nonzero;"/>
            </g>
            <g transform="matrix(22,0,0,22,544.57,273.785)">
                <path d="M0.463,-0.105L0.2,-0.105L0.2,-0.246L0.432,-0.246L0.432,-0.348L0.2,-0.348L0.2,-0.484L0.463,-0.484L0.463,-0.589L0.079,-0.589L0.079,-0L0.463,-0L0.463,-0.105Z" style="fill:rgb(104,104,148);fill-rule:nonzero;"/>
            </g>
            <g transform="matrix(22,0,0,22,555.856,273.785)">
                <path d="M0.079,-0.589L0.079,-0L0.442,-0L0.442,-0.105L0.2,-0.105L0.2,-0.589L0.079,-0.589Z" style="fill:rgb(104,104,148);fill-rule:nonzero;"/>
            </g>
            <g transform="matrix(22,0,0,22,566.152,273.785)">
                <rect x="0.079" y="-0.589" width="0.121" height="0.589" style="fill:rgb(104,104,148);fill-rule:nonzero;"/>
            </g>
            <g transform="matrix(22,0,0,22,572.29,273.785)">
                <path d="M0.196,-0.589L0.079,-0.589L0.079,-0L0.2,-0L0.2,-0.26C0.2,-0.342 0.194,-0.395 0.194,-0.395L0.198,-0.395C0.198,-0.395 0.221,-0.35 0.258,-0.299L0.475,-0L0.588,-0L0.588,-0.589L0.467,-0.589L0.467,-0.326C0.467,-0.251 0.471,-0.197 0.471,-0.197L0.467,-0.197C0.467,-0.197 0.445,-0.239 0.412,-0.287L0.196,-0.589Z" style="fill:rgb(104,104,148);fill-rule:nonzero;"/>
            </g>
            <g transform="matrix(22,0,0,22,586.964,273.785)">
                <path d="M0.317,0.012C0.487,0.012 0.592,-0.097 0.592,-0.294C0.592,-0.492 0.487,-0.601 0.317,-0.601C0.147,-0.601 0.042,-0.492 0.042,-0.294C0.042,-0.097 0.147,0.012 0.317,0.012ZM0.317,-0.493C0.415,-0.493 0.465,-0.417 0.465,-0.293C0.465,-0.168 0.416,-0.093 0.317,-0.093C0.218,-0.093 0.168,-0.168 0.168,-0.293C0.168,-0.417 0.218,-0.493 0.317,-0.493Z" style="fill:rgb(104,104,148);fill-rule:nonzero;"/>
            </g>
            <g transform="matrix(22,0,0,22,533.922,291.785)">
                <path d="M0.455,-0.182C0.425,-0.122 0.38,-0.095 0.32,-0.095C0.218,-0.095 0.167,-0.169 0.167,-0.292C0.167,-0.418 0.225,-0.495 0.321,-0.495C0.385,-0.495 0.423,-0.46 0.443,-0.398L0.559,-0.454C0.517,-0.549 0.442,-0.601 0.326,-0.601C0.151,-0.601 0.042,-0.491 0.042,-0.294C0.042,-0.098 0.15,0.012 0.308,0.012C0.434,0.012 0.502,-0.03 0.556,-0.119L0.455,-0.182Z" style="fill:rgb(104,104,148);fill-rule:nonzero;"/>
            </g>
            <g transform="matrix(22,0,0,22,546.638,291.785)">
                <path d="M0.2,-0L0.2,-0.246L0.445,-0.246L0.445,-0L0.566,-0L0.566,-0.589L0.445,-0.589L0.445,-0.352L0.2,-0.352L0.2,-0.589L0.079,-0.589L0.079,-0L0.2,-0Z" style="fill:rgb(104,104,148);fill-rule:nonzero;"/>
            </g>
            <g transform="matrix(22,0,0,22,560.828,291.785)">
                <rect x="0.079" y="-0.589" width="0.121" height="0.589" style="fill:rgb(104,104,148);fill-rule:nonzero;"/>
            </g>
            <g transform="matrix(22,0,0,22,566.966,291.785)">
                <path d="M0.079,-0.589L0.079,-0L0.442,-0L0.442,-0.105L0.2,-0.105L0.2,-0.589L0.079,-0.589Z" style="fill:rgb(104,104,148);fill-rule:nonzero;"/>
            </g>
            <g transform="matrix(22,0,0,22,577.262,291.785)">
                <path d="M0.463,-0.105L0.2,-0.105L0.2,-0.246L0.432,-0.246L0.432,-0.348L0.2,-0.348L0.2,-0.484L0.463,-0.484L0.463,-0.589L0.079,-0.589L0.079,-0L0.463,-0L0.463,-0.105Z" style="fill:rgb(104,104,148);fill-rule:nonzero;"/>
            </g>
            <g transform="matrix(14.5,0,0,14.5,533.922,309.785)">
                <path d="M0.2,-0L0.2,-0.228L0.42,-0.228L0.42,-0.33L0.2,-0.33L0.2,-0.484L0.451,-0.484L0.451,-0.589L0.079,-0.589L0.079,-0L0.2,-0Z" style="fill:rgb(104,104,148);fill-rule:nonzero;"/>
            </g>
            <g transform="matrix(14.5,0,0,14.5,540.94,309.785)">
                <path d="M0.416,-0.589L0.416,-0.229C0.416,-0.138 0.385,-0.089 0.3,-0.089C0.214,-0.089 0.183,-0.138 0.183,-0.229L0.183,-0.589L0.062,-0.589L0.062,-0.196C0.062,-0.039 0.174,0.012 0.3,0.012C0.425,0.012 0.537,-0.039 0.537,-0.196L0.537,-0.589L0.416,-0.589Z" style="fill:rgb(104,104,148);fill-rule:nonzero;"/>
            </g>
            <g transform="matrix(14.5,0,0,14.5,549.625,309.785)">
                <path d="M0.196,-0.589L0.079,-0.589L0.079,-0L0.2,-0L0.2,-0.26C0.2,-0.342 0.194,-0.395 0.194,-0.395L0.198,-0.395C0.198,-0.395 0.221,-0.35 0.258,-0.299L0.475,-0L0.588,-0L0.588,-0.589L0.467,-0.589L0.467,-0.326C0.467,-0.251 0.471,-0.197 0.471,-0.197L0.467,-0.197C0.467,-0.197 0.445,-0.239 0.412,-0.287L0.196,-0.589Z" style="fill:rgb(104,104,148);fill-rule:nonzero;"/>
            </g>
            <g transform="matrix(14.5,0,0,14.5,559.297,309.785)">
                <path d="M0.2,-0.102L0.2,-0.487L0.274,-0.487C0.374,-0.487 0.444,-0.443 0.444,-0.294C0.444,-0.152 0.375,-0.102 0.266,-0.102L0.2,-0.102ZM0.278,-0C0.443,-0 0.571,-0.083 0.571,-0.301C0.571,-0.508 0.448,-0.589 0.285,-0.589L0.079,-0.589L0.079,-0L0.278,-0Z" style="fill:rgb(104,104,148);fill-rule:nonzero;"/>
            </g>
            <g transform="matrix(14.5,0,0,14.5,568.113,309.785)">
                <path d="M0.46,-0L0.59,-0L0.376,-0.589L0.224,-0.589L0.01,-0L0.137,-0L0.183,-0.136L0.412,-0.136L0.46,-0ZM0.248,-0.325C0.281,-0.419 0.296,-0.488 0.296,-0.488L0.3,-0.488C0.3,-0.488 0.312,-0.42 0.346,-0.324L0.377,-0.236L0.217,-0.236L0.248,-0.325Z" style="fill:rgb(104,104,148);fill-rule:nonzero;"/>
            </g>
            <g transform="matrix(14.5,0,0,14.5,576.74,309.785)">
                <path d="M0.455,-0.182C0.425,-0.122 0.38,-0.095 0.32,-0.095C0.218,-0.095 0.167,-0.169 0.167,-0.292C0.167,-0.418 0.225,-0.495 0.321,-0.495C0.385,-0.495 0.423,-0.46 0.443,-0.398L0.559,-0.454C0.517,-0.549 0.442,-0.601 0.326,-0.601C0.151,-0.601 0.042,-0.491 0.042,-0.294C0.042,-0.098 0.15,0.012 0.308,0.012C0.434,0.012 0.502,-0.03 0.556,-0.119L0.455,-0.182Z" style="fill:rgb(104,104,148);fill-rule:nonzero;"/>
            </g>
            <g transform="matrix(14.5,0,0,14.5,585.121,309.785)">
                <rect x="0.079" y="-0.589" width="0.121" height="0.589" style="fill:rgb(104,104,148);fill-rule:nonzero;"/>
            </g>
            <g transform="matrix(14.5,0,0,14.5,589.167,309.785)">
                <path d="M0.317,0.012C0.487,0.012 0.592,-0.097 0.592,-0.294C0.592,-0.492 0.487,-0.601 0.317,-0.601C0.147,-0.601 0.042,-0.492 0.042,-0.294C0.042,-0.097 0.147,0.012 0.317,0.012ZM0.317,-0.493C0.415,-0.493 0.465,-0.417 0.465,-0.293C0.465,-0.168 0.416,-0.093 0.317,-0.093C0.218,-0.093 0.168,-0.168 0.168,-0.293C0.168,-0.417 0.218,-0.493 0.317,-0.493Z" style="fill:rgb(104,104,148);fill-rule:nonzero;"/>
            </g>
            <g transform="matrix(14.5,0,0,14.5,598.36,309.785)">
                <path d="M0.196,-0.589L0.079,-0.589L0.079,-0L0.2,-0L0.2,-0.26C0.2,-0.342 0.194,-0.395 0.194,-0.395L0.198,-0.395C0.198,-0.395 0.221,-0.35 0.258,-0.299L0.475,-0L0.588,-0L0.588,-0.589L0.467,-0.589L0.467,-0.326C0.467,-0.251 0.471,-0.197 0.471,-0.197L0.467,-0.197C0.467,-0.197 0.445,-0.239 0.412,-0.287L0.196,-0.589Z" style="fill:rgb(104,104,148);fill-rule:nonzero;"/>
            </g>
        </g>
    </g>
</svg>
